<?xml version="1.0" standalone="no"?>
<!DOCTYPE svg PUBLIC "-//W3C//DTD SVG 20010904//EN"
 "http://www.w3.org/TR/2001/REC-SVG-20010904/DTD/svg10.dtd">
<svg version="1.0" xmlns="http://www.w3.org/2000/svg"
 width="100.000000pt" height="100.000000pt" viewBox="0 0 100.000000 100.000000"
 preserveAspectRatio="xMidYMid meet">

<g transform="translate(0.000000,100.000000) scale(0.100000,-0.100000)"
fill="#000000" stroke="none">
<path d="M513 990 c-21 -9 -48 -67 -72 -158 -7 -23 -17 -42 -24 -42 -7 0 -30
-9 -51 -20 -28 -14 -44 -17 -57 -10 -29 16 -92 11 -126 -10 -88 -53 -101 -217
-37 -460 29 -113 88 -236 127 -264 24 -18 32 -19 71 -8 37 9 51 9 80 -3 45
-19 107 -19 152 0 29 12 43 12 79 3 36 -10 47 -9 69 5 78 52 167 326 168 523
0 110 -22 172 -74 204 -35 21 -97 26 -127 10 -13 -7 -29 -4 -57 10 -21 11 -44
20 -52 20 -14 0 -11 16 14 79 37 90 -5 152 -83 121z m16 -71 c-10 -10 -19 -25
-19 -33 0 -8 -4 -18 -10 -21 -5 -3 -2 14 7 39 10 27 21 42 29 39 9 -3 7 -10
-7 -24z m30 -33 c-7 -20 -20 -36 -29 -36 -12 0 -13 2 -1 9 8 5 10 14 6 21 -5
9 -4 11 3 6 7 -4 14 3 18 19 3 14 9 24 11 21 3 -2 -1 -21 -8 -40z m-56 -65
c-4 -3 -11 -10 -15 -15 -5 -5 -8 0 -8 12 0 15 4 20 16 15 9 -3 12 -9 7 -12z
m37 12 c0 -5 -5 -15 -10 -23 -7 -12 -9 -10 -7 8 1 19 17 33 17 15z m-82 -140
c5 -11 5 -49 0 -93 -15 -115 -16 -120 -38 -120 -42 0 -72 98 -50 164 18 56 70
84 88 49z"/>
</g>
</svg>
