<?xml version="1.0" standalone="no"?>
<!DOCTYPE svg PUBLIC "-//W3C//DTD SVG 20010904//EN"
 "http://www.w3.org/TR/2001/REC-SVG-20010904/DTD/svg10.dtd">
<svg version="1.0" xmlns="http://www.w3.org/2000/svg"
 width="100.000000pt" height="100.000000pt" viewBox="0 0 100.000000 100.000000"
 preserveAspectRatio="xMidYMid meet">

<g transform="translate(0.000000,100.000000) scale(0.100000,-0.100000)"
fill="#000000" stroke="none">
<path d="M450 975 c-11 -14 -7 -52 17 -137 4 -15 -3 -18 -40 -18 -25 0 -61 -7
-82 -16 -29 -12 -44 -13 -67 -5 -44 15 -54 3 -23 -29 l27 -28 -45 -30 c-60
-42 -105 -95 -136 -162 -22 -47 -26 -68 -26 -150 1 -84 4 -101 30 -153 61
-122 182 -206 329 -229 188 -29 379 66 461 229 26 52 29 69 30 153 0 82 -4
103 -26 151 -31 65 -85 129 -136 161 l-36 21 24 21 c14 12 31 30 39 40 14 18
13 19 -31 12 -35 -5 -59 -1 -112 19 -37 14 -78 25 -91 25 -20 0 -25 8 -36 58
-17 80 -41 102 -70 67z m49 -72 c26 -105 32 -123 41 -123 6 0 10 9 10 19 0 30
11 31 70 10 30 -11 71 -24 90 -28 l35 -7 -32 -17 c-18 -9 -50 -17 -73 -17 -46
0 -50 -12 -15 -43 14 -12 29 -36 34 -54 l9 -31 -46 20 c-26 11 -60 32 -76 47
l-28 26 -17 -25 c-29 -44 -50 -60 -81 -60 -16 0 -30 2 -30 4 0 3 9 21 21 40
11 19 19 45 17 58 -3 20 -8 23 -45 20 -24 -2 -53 3 -70 12 -25 13 -26 15 -7
16 12 0 39 7 60 16 27 11 53 14 86 10 55 -8 55 -8 33 74 -8 30 -15 63 -15 73
0 33 17 8 29 -40z"/>
</g>
</svg>
