<svg data-name="Layer 1" xmlns="http://www.w3.org/2000/svg" viewBox="0 0 986.06 250.15"><defs><style>.cls-1{stroke:#000;stroke-linecap:round;stroke-miterlimit:10;stroke-width:10px;}</style></defs><path class="cls-1" d="M1104,159.89c-310.41-20.26-620.86-24.67-931.39.75-.2-1.38-.39-2.75-.59-4.13,2.07-.81,4.1-2.12,6.22-2.37,36.74-4.41,73.47-8.92,110.24-13,171.87-18.92,344.23-20,516.61-16.56,93.56,1.88,187.07,7.21,280.6,11,3.34.14,6.67,0,11.64,0-40.79-36.36-82.36-69-120.66-106.37l1.63-3.08c2.45,1.15,5.09,1.95,7.32,3.51q54.2,37.7,108.3,75.54c14.1,9.84,28.16,19.77,42.44,29.26,14,9.32,15.06,19.3,2.16,30.78A117.32,117.32,0,0,1,1117,180.76q-73.41,39.88-147.17,78.9a50.76,50.76,0,0,1-18.18,5.06c-2.55.27-6.9-2.78-7.73-5.43s.81-8,2.91-9.86c4.29-3.9,9.51-6.58,14.54-9.27q71.56-38.37,143.2-76.55C1104.34,162.37,1104.16,161.13,1104,159.89Z" transform="translate(-166.49 -19.59)"></path></svg>