<?xml version="1.0" standalone="no"?>
<!DOCTYPE svg PUBLIC "-//W3C//DTD SVG 20010904//EN"
 "http://www.w3.org/TR/2001/REC-SVG-20010904/DTD/svg10.dtd">
<svg version="1.0" xmlns="http://www.w3.org/2000/svg"
 width="498.000000pt" height="200.000000pt" viewBox="0 0 498.000000 200.000000"
 preserveAspectRatio="xMidYMid meet">

<g transform="translate(0.000000,200.000000) scale(0.100000,-0.100000)"
fill="#000000" stroke="none">
<path d="M1886 1899 c-119 -27 -274 -160 -385 -329 -110 -169 -220 -402 -243
-517 -7 -36 -20 -64 -32 -75 -39 -32 -138 -80 -147 -71 -5 5 15 54 47 117 59
116 65 151 26 151 -20 0 -31 -15 -69 -98 -54 -118 -64 -169 -38 -197 27 -30
64 -24 135 19 l64 38 27 -28 c15 -16 37 -29 51 -29 30 1 99 32 117 54 13 15
15 14 32 -13 23 -37 56 -47 106 -30 21 7 48 12 60 10 27 -3 68 18 152 76 35
24 65 42 68 39 2 -2 -3 -31 -12 -63 l-16 -59 -121 -28 c-229 -53 -513 -164
-634 -247 -110 -75 -161 -158 -151 -244 5 -49 50 -131 81 -149 11 -6 28 -19
38 -29 45 -43 108 -61 213 -62 88 0 107 3 158 27 72 34 179 135 241 227 56 84
141 257 186 378 40 107 26 100 212 109 96 5 131 4 143 -6 21 -17 19 -24 -15
-63 -54 -62 -23 -82 36 -23 39 39 44 76 15 105 -30 30 -83 35 -216 24 -66 -6
-122 -10 -123 -8 -2 2 9 41 24 88 41 127 22 148 -69 74 -49 -40 -138 -97 -152
-97 -9 0 14 40 56 97 59 79 50 102 -26 66 -21 -10 -35 -24 -35 -35 0 -9 -16
-46 -35 -81 -46 -84 -98 -110 -129 -65 -21 29 -20 53 4 131 l20 66 58 11 c295
59 619 183 770 294 88 65 122 122 122 203 0 76 -13 105 -75 162 -83 76 -114
84 -320 86 -99 1 -197 -2 -219 -6z m436 -26 c57 -26 131 -92 152 -137 20 -44
20 -109 0 -152 -26 -54 -124 -137 -220 -186 -82 -42 -209 -98 -223 -98 -3 0
53 29 124 64 212 105 315 205 315 308 0 59 -17 94 -66 138 -54 47 -113 70
-191 75 l-68 4 62 -9 c108 -15 203 -72 240 -143 36 -70 -5 -163 -107 -244 -65
-52 -278 -159 -405 -203 -96 -33 -355 -103 -361 -97 -2 2 68 27 155 57 277 91
469 199 531 297 25 39 30 57 30 110 0 80 -14 107 -87 173 -53 46 -61 51 -93
45 -145 -27 -347 -250 -499 -553 -23 -45 -46 -82 -51 -82 -15 0 99 222 170
330 75 115 193 233 275 277 l59 31 -37 7 c-50 10 -122 -2 -182 -29 -138 -62
-312 -272 -444 -534 -23 -45 -46 -82 -51 -82 -15 0 99 222 170 330 108 164
259 293 376 318 22 5 116 8 209 7 149 -1 176 -4 217 -22z m-302 3 c0 -2 -26
-19 -58 -39 -121 -75 -255 -248 -374 -482 -33 -66 -62 -122 -64 -124 -6 -6
-158 -41 -162 -36 -9 9 144 288 206 374 116 163 218 255 327 293 44 15 125 25
125 14z m151 -38 c72 -56 102 -101 107 -162 3 -37 -1 -64 -13 -90 -27 -55
-123 -138 -221 -188 -82 -42 -209 -98 -223 -98 -3 0 53 29 124 64 212 105 315
205 315 308 0 74 -35 126 -120 177 -19 11 -30 21 -23 21 6 0 30 -15 54 -32z
m-41 1 c260 -156 82 -384 -437 -560 -48 -16 -88 -27 -91 -25 -2 3 21 53 52
113 107 205 262 394 377 461 30 17 56 32 59 32 3 0 21 -10 40 -21z m-634 -681
c-4 -13 -14 -52 -23 -88 -25 -104 -113 -172 -155 -120 -23 28 -23 53 2 133
l20 65 63 15 c92 22 101 21 93 -5z m309 -330 c-55 -182 -197 -432 -309 -543
-126 -126 -252 -153 -392 -86 -56 27 -78 45 -103 80 -42 63 -48 98 -23 152 63
141 324 285 695 385 148 40 140 39 132 12z"/>
<path d="M4485 1836 c-150 -37 -322 -173 -463 -367 -48 -66 -70 -88 -99 -98
-89 -32 -117 -78 -72 -120 l22 -20 -32 -50 c-18 -27 -39 -55 -47 -61 -7 -7
-14 -20 -14 -30 0 -9 -13 -50 -30 -90 -16 -40 -30 -83 -30 -96 0 -46 29 -24
61 47 l33 71 35 -38 c29 -32 33 -39 18 -42 -18 -4 -24 -32 -7 -32 6 0 10 -7
10 -15 0 -22 21 -18 27 5 4 17 14 11 76 -42 63 -54 173 -118 203 -118 6 0 14
-13 18 -30 3 -19 12 -30 22 -30 12 0 15 6 10 25 -6 22 -3 25 18 25 25 0 66 41
66 66 0 20 -24 17 -45 -6 -19 -21 -35 -26 -35 -11 0 34 72 199 126 288 35 57
64 110 64 117 0 9 -20 13 -67 14 -87 2 -141 -27 -230 -121 -69 -74 -93 -117
-93 -167 0 -64 51 -48 169 51 l68 58 -23 -57 c-13 -31 -31 -85 -40 -120 -9
-34 -22 -62 -29 -62 -37 0 -204 143 -269 231 l-26 37 47 11 c104 26 170 89
161 152 -4 27 -2 29 41 34 254 34 533 130 638 219 74 64 103 168 70 249 -45
107 -199 161 -352 123z m196 -12 c99 -30 171 -131 155 -217 -10 -53 -58 -116
-120 -158 -50 -33 -221 -107 -286 -123 l-25 -6 25 11 c14 7 75 35 135 65 176
84 263 176 252 270 -6 57 -35 94 -99 129 -46 26 -63 30 -133 30 -71 0 -88 -4
-155 -36 -151 -72 -294 -211 -431 -419 -81 -122 -89 -133 -97 -126 -3 3 2 14
10 23 18 20 49 79 47 89 0 4 3 10 8 13 5 3 30 35 55 71 148 208 293 329 458
381 70 23 132 23 201 3z m25 -39 c136 -67 132 -189 -11 -297 -99 -76 -300
-159 -465 -193 -85 -18 -270 -32 -270 -21 0 5 24 45 53 89 144 220 321 382
481 439 66 24 141 18 212 -17z m-797 -448 c-18 -12 -39 -33 -45 -45 -9 -18
-13 -20 -17 -9 -6 15 21 45 58 65 36 20 39 13 4 -11z m5 -36 c-11 -19 -23 -27
-32 -23 -12 4 -9 11 14 29 37 29 39 29 18 -6z m96 -68 c-8 -3 -39 -19 -68 -35
l-52 -30 21 36 c19 33 24 36 67 35 26 0 40 -3 32 -6z m-2 -82 c-20 -34 -148
-88 -148 -63 0 12 53 53 105 81 44 23 64 15 43 -18z m312 -7 c0 -22 -188 -204
-210 -204 -28 0 68 139 127 183 32 24 83 37 83 21z"/>
<path d="M465 1556 c-94 -30 -208 -100 -293 -180 -64 -61 -82 -92 -82 -145 0
-47 22 -73 58 -69 33 4 39 24 10 33 -32 10 -38 23 -26 55 21 62 154 170 289
235 176 84 238 39 175 -127 -27 -73 -107 -235 -177 -359 -55 -97 -63 -139 -26
-139 14 1 33 16 53 43 30 41 273 327 278 327 1 0 -9 -33 -23 -72 -19 -57 -25
-94 -25 -166 -1 -88 0 -95 24 -114 37 -30 103 -21 165 22 69 48 169 152 223
235 43 64 50 70 78 67 38 -4 64 19 64 55 0 23 -3 25 -34 21 -33 -4 -33 -3 -25
27 21 73 -1 185 -37 185 -14 0 -15 -5 -8 -32 19 -73 10 -143 -29 -220 -63
-127 -219 -302 -304 -341 -32 -14 -71 5 -79 39 -10 40 20 163 66 267 43 99 47
116 28 135 -14 14 -48 16 -48 3 0 -8 -185 -227 -236 -281 -8 -8 7 32 35 90 81
172 113 290 97 354 -14 57 -102 80 -191 52z m118 -5 c38 -15 67 -51 67 -84 0
-34 -56 -207 -72 -222 -8 -7 -9 -4 -3 10 35 89 65 184 65 206 0 44 -35 79 -80
79 -117 0 -360 -146 -432 -259 -15 -25 -28 -40 -28 -34 0 6 15 32 33 59 56 85
205 190 326 231 74 25 89 27 124 14z m581 -169 c0 -31 -8 -73 -17 -92 -9 -19
-13 -24 -9 -10 4 14 7 60 7 102 0 51 3 74 10 67 5 -5 9 -35 9 -67z m-364 -72
c0 -25 -21 -70 -32 -70 -5 0 -6 11 -2 25 4 16 2 25 -5 25 -7 0 -5 9 5 25 18
27 34 25 34 -5z m411 -55 c0 -6 -10 -12 -23 -13 -19 -4 -20 -2 -9 12 15 17 33
18 32 1z"/>
<path d="M2615 1556 c-95 -30 -212 -102 -293 -180 -65 -62 -82 -92 -82 -145 0
-47 22 -73 58 -69 33 4 39 24 10 33 -32 10 -38 23 -26 55 21 62 154 170 289
235 176 84 238 39 175 -127 -27 -73 -107 -235 -177 -359 -55 -97 -63 -139 -26
-139 14 1 33 16 53 43 30 41 273 327 278 327 1 0 -9 -33 -23 -72 -19 -57 -25
-94 -25 -166 -1 -88 0 -95 24 -114 37 -30 103 -21 165 22 106 73 235 229 286
346 42 96 32 244 -17 244 -14 0 -15 -5 -8 -32 19 -73 10 -143 -29 -220 -63
-127 -219 -302 -304 -341 -32 -14 -71 5 -79 39 -10 40 20 163 66 267 43 99 47
116 28 135 -14 14 -48 16 -48 3 0 -8 -185 -227 -236 -281 -8 -8 7 32 35 90 81
172 113 290 97 354 -14 57 -102 80 -191 52z m118 -5 c38 -15 67 -51 67 -84 0
-34 -56 -207 -72 -222 -8 -7 -9 -4 -3 10 35 89 65 184 65 206 0 44 -35 79 -80
79 -117 0 -360 -146 -432 -259 -15 -25 -28 -40 -28 -34 0 6 15 32 33 59 56 85
205 190 326 231 74 25 89 27 124 14z m581 -169 c0 -31 -8 -73 -17 -92 -9 -19
-13 -24 -9 -10 4 14 7 60 7 102 0 51 3 74 10 67 5 -5 9 -35 9 -67z m-364 -72
c0 -25 -21 -70 -32 -70 -5 0 -6 11 -2 25 4 16 2 25 -5 25 -7 0 -5 9 5 25 18
27 34 25 34 -5z"/>
<path d="M3340 1170 c-8 -5 -28 -10 -43 -10 -30 0 -47 -24 -29 -42 7 -7 -1
-24 -25 -57 -48 -61 -75 -124 -71 -164 3 -29 6 -32 40 -35 50 -4 127 37 202
107 l59 56 -26 -46 c-32 -54 -35 -89 -9 -89 25 0 33 7 138 109 94 91 127 111
85 53 -47 -66 -103 -200 -108 -259 -4 -50 -2 -62 18 -87 21 -26 26 -28 74 -23
29 3 70 14 91 25 48 25 129 109 137 140 6 27 13 31 -78 -47 -52 -45 -114 -81
-138 -81 -8 0 -22 9 -32 20 -36 40 0 161 90 305 61 96 66 115 33 115 -28 0
-73 -27 -158 -94 -68 -54 -69 -47 -4 41 13 17 24 36 24 42 0 15 -33 14 -48 -1
-8 -8 -12 -9 -12 -1 0 7 -27 13 -67 16 -38 3 -81 8 -98 11 -16 4 -37 2 -45 -4z
m200 -47 c-1 -5 -12 -21 -25 -38 -24 -29 -24 -29 -19 -5 10 45 13 50 29 50 8
0 15 -3 15 -7z m-94 -17 c16 -43 -132 -192 -210 -212 l-28 -7 32 62 c17 35 55
87 84 117 42 43 58 54 84 54 19 0 35 -6 38 -14z"/>
<path d="M4498 816 c-66 -72 -150 -126 -207 -133 -60 -8 -55 -33 7 -33 63 0
138 43 220 127 57 58 80 105 50 102 -7 -1 -39 -29 -70 -63z"/>
</g>
</svg>
