<svg xmlns="http://www.w3.org/2000/svg" width="1409" height="56" viewBox="0 0 1409 56">
  <defs>
    <style>
      .cls-1 {
        fill: #7c8ea5;
      }

      .cls-1, .cls-2, .cls-3, .cls-4, .cls-5 {
        fill-rule: evenodd;
      }

      .cls-2 {
        fill: #fff;
      }

      .cls-3 {
        fill: #687e98;
      }

      .cls-4 {
        fill: #72859b;
      }

      .cls-5 {
        fill: #fb324f;
      }
    </style>
  </defs>
  <g>
    <g id="_34" data-name="34">
      <path id="_34-2" data-name="34" class="cls-1" d="M1439.15,31.962a0.883,0.883,0,0,0,0,1.21,0.8,0.8,0,0,0,1.16,0l2.45-2.567a0.242,0.242,0,0,0,.05-0.062c0.01-.005.01-0.011,0.02-0.016l0.03-.051s0.01-.01.01-0.015l0.03-.056s0.01-.008.01-0.012l0.03-.064V30.32a0.185,0.185,0,0,0,.02-0.071c0.01,0,.01-0.006.01-0.008,0-.024.01-0.048,0.01-0.072a0.022,0.022,0,0,0,.01-0.022,0.134,0.134,0,0,1,.01-0.061V29.915a0.132,0.132,0,0,1-.01-0.061,0.023,0.023,0,0,0-.01-0.022c0-.025-0.01-0.048-0.01-0.072,0,0,0-.006-0.01-0.009a0.184,0.184,0,0,0-.02-0.07V29.672l-0.03-.064s-0.01-.008-0.01-0.012l-0.03-.056c0-.005-0.01-0.011-0.01-0.016l-0.03-.051c-0.01-.006-0.01-0.011-0.02-0.017a0.243,0.243,0,0,0-.05-0.062l-2.45-2.567a0.8,0.8,0,0,0-1.16,0,0.883,0.883,0,0,0,0,1.21l1.06,1.107h-7.77a0.857,0.857,0,0,0,0,1.711h7.77Zm1.06-1.107M1431.69,23a7.007,7.007,0,0,0,0,14,6.614,6.614,0,0,0,5.55-3.086,0.868,0.868,0,0,0-.22-1.188,0.79,0.79,0,0,0-1.13.23,5.009,5.009,0,0,1-4.2,2.332,5.294,5.294,0,0,1,0-10.577,4.991,4.991,0,0,1,4.2,2.343,0.8,0.8,0,0,0,1.14.233,0.887,0.887,0,0,0,.22-1.188,6.612,6.612,0,0,0-5.56-3.1h0Zm0,0" transform="translate(-34 -19)"/>
    </g>
    <g id="_33" data-name="33">
      <path class="cls-1" d="M1406.97,33.9a3.619,3.619,0,0,0-3.04-3.7,22.919,22.919,0,0,0-2.4-.035c-0.27.006-.55,0.012-0.82,0.014h-0.04l-1.1-.052c-0.68,0-1.36-.007-2.04.006a3.418,3.418,0,0,0-3.39,2.938,13.59,13.59,0,0,0-.13,2.207v0.873a0.749,0.749,0,0,0,.16.456,0.81,0.81,0,0,0,.68.4,0.853,0.853,0,0,0,.26-0.043,0.976,0.976,0,0,0,.64-0.972c0.01-.327.01-0.654,0.01-0.981V34.274c0.02-1.363.71-2.146,1.89-2.148,1.89,0,3.78,0,5.66,0,1.21,0,1.89.772,1.91,2.165V35c0,0.337,0,.675.01,1.011a0.945,0.945,0,0,0,.88.993h0.02a0.926,0.926,0,0,0,.85-1.032l0.01-.163C1406.99,35.187,1407,34.539,1406.97,33.9Zm-6.47-4.113h0.02l0.03-.006c0.04-.009.09-0.016,0.14-0.025a3.325,3.325,0,0,0,.58-0.13,4.725,4.725,0,0,0,2.76-4.912,3.982,3.982,0,0,0-3.19-3.678,3.661,3.661,0,0,0-3.75,2.353,5.11,5.11,0,0,0,.75,5.008A3.393,3.393,0,0,0,1400.5,29.788Zm-1.2-6.374a1.672,1.672,0,0,1,1.09-.4h0.01a1.75,1.75,0,0,1,1.5.853,2.7,2.7,0,0,1,.21,2.349,2.845,2.845,0,0,1-.8,1.2,1.287,1.287,0,0,1-1.65.131,3,3,0,0,1-1.16-2.2A2.284,2.284,0,0,1,1399.3,23.414Z" transform="translate(-34 -19)"/>
    </g>
    <g id="_32" data-name="32">
      <path id="_32-2" data-name="32" class="cls-2" d="M1366.68,32.181a2.768,2.768,0,0,1-3.98-.242,3.011,3.011,0,0,1-.02-3.845,2.765,2.765,0,0,1,4-.265c1.01-.7,2.02-1.4,3.04-2.105a1.048,1.048,0,0,1,.09-0.065,1.067,1.067,0,0,0,.63-1.08,2.757,2.757,0,0,1,2.61-2.573,2.8,2.8,0,0,1,2.84,2.212,2.96,2.96,0,0,1-1.35,3.22,2.713,2.713,0,0,1-3.34-.5c-0.09-.09-0.17-0.185-0.27-0.3-1.12.776-2.23,1.542-3.33,2.32a0.379,0.379,0,0,0-.09.287q-0.015.749,0,1.5a0.525,0.525,0,0,0,.13.341c1.08,0.767,2.17,1.518,3.29,2.294a2.93,2.93,0,0,1,1.77-1.143,2.822,2.822,0,0,1,3.25,2.328,2.93,2.93,0,0,1-2.23,3.39,2.824,2.824,0,0,1-3.32-2.912,0.548,0.548,0,0,0-.16-0.38C1369.06,33.829,1367.88,33.013,1366.68,32.181Zm-1.86-3.628a1.451,1.451,0,0,0-.03,2.9A1.451,1.451,0,0,0,1364.82,28.554Zm8.38-2.194a1.45,1.45,0,1,0-1.4-1.453A1.421,1.421,0,0,0,1373.2,26.359Zm0,7.291a1.451,1.451,0,1,0,1.39,1.466A1.421,1.421,0,0,0,1373.2,33.65Z" transform="translate(-34 -19)"/>
    </g>
    <g id="_31" data-name="31">
      <path id="_31-2" data-name="31" class="cls-2" d="M1334.6,27.428H1325v1.714h9.6V27.428Zm0-4.428H1325v1.714h9.6V23Zm3.2,8.857V28.428h-1.6v3.429H1333v1.714h3.2V37h1.6V33.571h3.2V31.857h-3.2ZM1325,33.571h6.4V31.857H1325v1.714Z" transform="translate(-34 -19)"/>
    </g>
    <g id="_30" data-name="30">
      <path id="_08" data-name="08" class="cls-2" d="M1300.7,23a4.235,4.235,0,0,0-1.96.475,3.965,3.965,0,0,0-.73.478,4.415,4.415,0,0,0-.74-0.478,4.235,4.235,0,0,0-1.96-.475,4.324,4.324,0,0,0-4.3,4.337,7.588,7.588,0,0,0,2.45,5.053,22.7,22.7,0,0,0,4.03,3.285l0.52,0.336,0.51-.336a22.8,22.8,0,0,0,4.03-3.285,7.588,7.588,0,0,0,2.45-5.053A4.324,4.324,0,0,0,1300.7,23Zm-5.39,1.866a2.392,2.392,0,0,1,1.94.983l0.76,1.014,0.75-1.015a2.391,2.391,0,0,1,1.94-.982,2.453,2.453,0,0,1,2.43,2.471,5.892,5.892,0,0,1-1.95,3.777,20.432,20.432,0,0,1-3.17,2.656,20.009,20.009,0,0,1-3.18-2.656,5.892,5.892,0,0,1-1.95-3.777A2.453,2.453,0,0,1,1295.31,24.866Z" transform="translate(-34 -19)"/>
    </g>
    <g id="_29" data-name="29">
      <path class="cls-2" d="M1262,32.429c0.01,0.011.02,0.014,0.03,0.024a0.658,0.658,0,0,0,.14.119c0.03,0.014.04,0.032,0.07,0.043a0.584,0.584,0,0,0,.52,0c0.03-.011.04-0.029,0.07-0.043a0.658,0.658,0,0,0,.14-0.119c0.01-.01.02-0.014,0.03-0.024l1.87-2.471a0.588,0.588,0,0,0,.06-0.647,0.617,0.617,0,0,0-.56-0.341h-1.25V23.618A0.614,0.614,0,0,0,1262.5,23a0.623,0.623,0,0,0-.63.618v5.353h-1.25a0.613,0.613,0,0,0-.55.341,0.606,0.606,0,0,0,.05.647Zm7.37-.988a0.62,0.62,0,0,0-.62.618v1.853a1.867,1.867,0,0,1-1.88,1.853h-8.75a1.864,1.864,0,0,1-1.87-1.853V32.059a0.625,0.625,0,0,0-1.25,0v1.853A3.108,3.108,0,0,0,1258.12,37h8.75a3.11,3.11,0,0,0,3.13-3.088V32.059A0.623,0.623,0,0,0,1269.37,31.441Z" transform="translate(-34 -19)"/>
    </g>
    <g id="_28" data-name="28">
      <path id="_28-2" data-name="28" class="cls-3" d="M1220.19,35.414a0.663,0.663,0,0,1,0-.929L1224.62,30l-4.43-4.493a0.663,0.663,0,0,1,0-.929l0.39-.393a0.634,0.634,0,0,1,.91,0l5.3,5.349A0.686,0.686,0,0,1,1227,30v0a0.686,0.686,0,0,1-.21.465l-5.28,5.344a0.647,0.647,0,0,1-.46.192,0.668,0.668,0,0,1-.47-0.192ZM1226.87,30h0Z" transform="translate(-34 -19)"/>
    </g>
    <g id="_27" data-name="27">
      <path id="_27-2" data-name="27" class="cls-2" d="M1188.19,35.414a0.663,0.663,0,0,1,0-.929L1192.62,30l-4.43-4.493a0.663,0.663,0,0,1,0-.929l0.39-.393a0.634,0.634,0,0,1,.91,0l5.3,5.349A0.686,0.686,0,0,1,1195,30v0a0.686,0.686,0,0,1-.21.465l-5.28,5.344a0.647,0.647,0,0,1-.46.192,0.668,0.668,0,0,1-.47-0.192ZM1194.87,30h0Z" transform="translate(-34 -19)"/>
    </g>
    <g id="_26" data-name="26">
      <path id="_26-2" data-name="26" class="cls-2" d="M1162.81,35.414a0.69,0.69,0,0,0,0-.929L1158.38,30l4.43-4.493a0.663,0.663,0,0,0,0-.929l-0.39-.393a0.646,0.646,0,0,0-.92,0l-5.29,5.349A0.686,0.686,0,0,0,1156,30v0a0.686,0.686,0,0,0,.21.465l5.28,5.344a0.647,0.647,0,0,0,.46.192,0.629,0.629,0,0,0,.46-0.192ZM1156.13,30h0Z" transform="translate(-34 -19)"/>
    </g>
    <g id="_25" data-name="25">
      <path id="_25-2" data-name="25" class="cls-3" d="M1130.81,35.414a0.69,0.69,0,0,0,0-.929L1126.38,30l4.43-4.493a0.663,0.663,0,0,0,0-.929l-0.39-.393a0.634,0.634,0,0,0-.91,0l-5.3,5.349A0.686,0.686,0,0,0,1124,30v0a0.686,0.686,0,0,0,.21.465l5.28,5.344a0.647,0.647,0,0,0,.46.192,0.629,0.629,0,0,0,.46-0.192ZM1124.13,30h0Z" transform="translate(-34 -19)"/>
    </g>
    <g id="_24" data-name="24">
      <path class="cls-2" d="M1084.4,32.45c0.01,0.013.02,0.017,0.03,0.029a0.691,0.691,0,0,0,.18.145c0.03,0.017.05,0.038,0.08,0.052a0.684,0.684,0,0,0,.62,0c0.03-.014.05-0.035,0.08-0.052a0.643,0.643,0,0,0,.17-0.145c0.01-.012.03-0.017,0.04-0.029l2.25-3a0.744,0.744,0,0,0,.07-0.785,0.756,0.756,0,0,0-.67-0.415h-1.5v-6.5a0.75,0.75,0,0,0-1.5,0v6.5h-1.5a0.756,0.756,0,0,0-.67.415,0.744,0.744,0,0,0,.07.785Zm8.85-1.2a0.746,0.746,0,0,0-.75.75v2.25a2.253,2.253,0,0,1-2.25,2.25h-10.5a2.253,2.253,0,0,1-2.25-2.25V32a0.75,0.75,0,0,0-1.5,0v2.25a3.753,3.753,0,0,0,3.75,3.75h10.5a3.753,3.753,0,0,0,3.75-3.75V32A0.753,0.753,0,0,0,1093.25,31.25Z" transform="translate(-34 -19)"/>
    </g>
    <g id="_23" data-name="23">
      <path class="cls-2" d="M1052.06,19.163a0.511,0.511,0,0,0-.38-0.163,0.528,0.528,0,0,0-.38.163,0.573,0.573,0,0,0,0,.79,13.149,13.149,0,0,1,0,18.095,0.573,0.573,0,0,0,0,.789,0.527,0.527,0,0,0,.38.164,0.511,0.511,0,0,0,.38-0.164A14.3,14.3,0,0,0,1052.06,19.163Zm-2.25,2.336a0.527,0.527,0,0,0-.38-0.164,0.511,0.511,0,0,0-.38.164,0.573,0.573,0,0,0,0,.789,9.743,9.743,0,0,1,0,13.422,0.573,0.573,0,0,0,0,.789,0.511,0.511,0,0,0,.38.164,0.527,0.527,0,0,0,.38-0.164A10.9,10.9,0,0,0,1049.81,21.5Zm-2.44,2.532a0.527,0.527,0,0,0-.38-0.163,0.511,0.511,0,0,0-.38.163,0.567,0.567,0,0,0,0,.79,6.065,6.065,0,0,1,0,8.359,0.573,0.573,0,0,0,0,.789,0.51,0.51,0,0,0,.38.164,0.527,0.527,0,0,0,.38-0.163A7.225,7.225,0,0,0,1047.37,24.032Zm-3.23-2.8a0.517,0.517,0,0,0-.57.067l-3.94,3.275h-3.09a0.548,0.548,0,0,0-.54.558v7.729a0.549,0.549,0,0,0,.54.558h3.09l3.94,3.273a0.551,0.551,0,0,0,.34.123,0.506,0.506,0,0,0,.23-0.055,0.559,0.559,0,0,0,.31-0.5V21.739A0.559,0.559,0,0,0,1044.14,21.236Zm-0.77,1.665V35.1l-3.22-2.669a0.5,0.5,0,0,0-.33-0.123h-2.74V25.695h2.73a0.512,0.512,0,0,0,.34-0.123Z" transform="translate(-34 -19)"/>
    </g>
    <g id="_22" data-name="22">
      <path id="_17" data-name="17" class="cls-2" d="M1014.76,29.526c-0.34.222-.69,0.444-1.04,0.666l-4.56,2.9c-0.96.608-1.91,1.215-2.87,1.823a0.551,0.551,0,0,1-.82-0.523V29.355a0.645,0.645,0,0,1-.17.171l-1.05.666-4.56,2.9-2.863,1.823A0.556,0.556,0,0,1,996,34.4V23.61a0.637,0.637,0,0,1,.066-0.286l0.009-.019a0.517,0.517,0,0,1,.364-0.283h0l0.025,0A0.529,0.529,0,0,1,996.55,23a0.452,0.452,0,0,1,.275.082h0l1.046,0.666c1.521,0.968,3.037,1.936,4.567,2.9,0.95,0.607,1.9,1.215,2.86,1.823a0.648,0.648,0,0,1,.17.171V23.61a0.663,0.663,0,0,1,.06-0.286,0.019,0.019,0,0,0,.01-0.019,0.521,0.521,0,0,1,.37-0.283h0c0.01,0,.01,0,0.02,0a0.658,0.658,0,0,1,.09-0.011,0.451,0.451,0,0,1,.27.082h0l1.05,0.666,4.56,2.9c0.96,0.607,1.91,1.215,2.86,1.823A0.641,0.641,0,0,1,1014.76,29.526ZM1003.92,29c-0.07-.048-0.15-0.1-0.22-0.143q-2.28-1.452-4.565-2.9l-2.036-1.3v8.69l0.22-.14,4.561-2.9Zm9.47,0c-0.08-.048-0.15-0.1-0.23-0.143l-4.56-2.9-2.04-1.3v8.69c0.08-.047.15-0.093,0.22-0.14q2.295-1.452,4.57-2.9Z" transform="translate(-34 -19)"/>
    </g>
    <g id="_21" data-name="21">
      <path id="_17-2" data-name="17" class="cls-2" d="M935.075,68.832a0.891,0.891,0,0,0,.884-0.9V58.2a3.2,3.2,0,0,0-3.17-3.213h-1.295a3.2,3.2,0,0,0-3.17,3.213V71.8a3.2,3.2,0,0,0,3.17,3.214h1.295a3.2,3.2,0,0,0,3.17-3.214,0.886,0.886,0,1,0-1.771,0,1.411,1.411,0,0,1-1.4,1.421h-1.295a1.412,1.412,0,0,1-1.4-1.421V58.2a1.412,1.412,0,0,1,1.4-1.421h1.295a1.411,1.411,0,0,1,1.4,1.421v9.733A0.892,0.892,0,0,0,935.075,68.832ZM921.439,54.99h-1.333a3.2,3.2,0,0,0-3.17,3.213V71.8a3.2,3.2,0,0,0,3.17,3.214h1.333A3.2,3.2,0,0,0,924.61,71.8V58.2A3.2,3.2,0,0,0,921.439,54.99ZM918.707,58.2a1.411,1.411,0,0,1,1.4-1.421h1.333a1.412,1.412,0,0,1,1.4,1.421V71.8a1.412,1.412,0,0,1-1.4,1.421h-1.333a1.411,1.411,0,0,1-1.4-1.421V58.2Z" transform="translate(-34 -19)"/>
    </g>
    <g id="_21-2" data-name="21">
      <path id="_17-3" data-name="17" class="cls-2" d="M975.075,32.832a0.891,0.891,0,0,0,.884-0.9V22.2a3.2,3.2,0,0,0-3.17-3.213h-1.295a3.2,3.2,0,0,0-3.17,3.214V35.8a3.2,3.2,0,0,0,3.17,3.213h1.295a3.2,3.2,0,0,0,3.17-3.213,0.885,0.885,0,1,0-1.77,0,1.412,1.412,0,0,1-1.4,1.421h-1.295a1.412,1.412,0,0,1-1.4-1.421V22.2a1.412,1.412,0,0,1,1.4-1.421h1.295a1.412,1.412,0,0,1,1.4,1.421v9.733A0.892,0.892,0,0,0,975.075,32.832ZM961.439,18.99h-1.333a3.2,3.2,0,0,0-3.17,3.214V35.8a3.2,3.2,0,0,0,3.17,3.213h1.333A3.2,3.2,0,0,0,964.61,35.8V22.2A3.2,3.2,0,0,0,961.439,18.99ZM958.707,22.2a1.411,1.411,0,0,1,1.4-1.421h1.333a1.412,1.412,0,0,1,1.4,1.421V35.8a1.412,1.412,0,0,1-1.4,1.421h-1.333a1.411,1.411,0,0,1-1.4-1.421V22.2Z" transform="translate(-34 -19)"/>
    </g>
    <g id="_20" data-name="20">
      <path id="_16" data-name="16" class="cls-2" d="M934.679,27.067l-14.142-7.7C919.005,18.536,917,19.141,917,21.3V36.7a2.164,2.164,0,0,0,2.17,2.3,2.854,2.854,0,0,0,1.372-.375l14.14-7.7A2.066,2.066,0,0,0,934.679,27.067ZM919.4,36.594l0.024-15.214,13.956,7.627Z" transform="translate(-34 -19)"/>
    </g>
    <g id="_19" data-name="19">
      <path id="_15" data-name="15" class="cls-2" d="M878.235,29.526l1.047,0.666,4.562,2.9,2.863,1.823a0.556,0.556,0,0,0,.826-0.523V29.355a0.539,0.539,0,0,0,.168.171l1.046,0.666,4.563,2.9,2.863,1.823A0.556,0.556,0,0,0,897,34.4V23.61a0.638,0.638,0,0,0-.067-0.286l-0.008-.019a0.521,0.521,0,0,0-.365-0.283h0l-0.025,0A0.532,0.532,0,0,0,896.45,23a0.453,0.453,0,0,0-.276.082h0l-1.047.666-4.562,2.9L887.7,28.48a0.541,0.541,0,0,0-.168.171V23.61a0.638,0.638,0,0,0-.067-0.286l-0.008-.019a0.519,0.519,0,0,0-.365-0.283h0l-0.025,0A0.532,0.532,0,0,0,886.984,23a0.448,0.448,0,0,0-.275.082h0l-1.047.666-4.562,2.9-2.863,1.823A0.645,0.645,0,0,0,878.235,29.526ZM889.076,29l0.226-.143,4.562-2.9,2.037-1.3v8.69l-0.221-.14-4.562-2.9Zm-9.465,0,0.225-.143,4.562-2.9,2.037-1.3v8.69l-0.22-.14-4.563-2.9Z" transform="translate(-34 -19)"/>
    </g>
    <g id="_18" data-name="18">
      <path id="_14" data-name="14" class="cls-1" d="M855,19a2,2,0,1,1-2,2A2,2,0,0,1,855,19Zm0,8a2,2,0,1,1-2,2A2,2,0,0,1,855,27Zm0,8a2,2,0,1,1-2,2A2,2,0,0,1,855,35Z" transform="translate(-34 -19)"/>
    </g>
    <g id="_17-4" data-name="17">
      <path id="_11" data-name="11" class="cls-4" d="M825,39a3.037,3.037,0,0,0,2.939-2.5h-5.878A3.037,3.037,0,0,0,825,39Zm7.5-5.906a5.678,5.678,0,0,1-1.9-4.271V26.5a5.766,5.766,0,0,0-4.8-5.767v-0.9a0.8,0.8,0,1,0-1.6,0v0.9a5.765,5.765,0,0,0-4.8,5.767v2.323a5.685,5.685,0,0,1-1.911,4.278A1.481,1.481,0,0,0,817,34.208a1.432,1.432,0,0,0,1.4,1.459h13.2a1.432,1.432,0,0,0,1.4-1.459A1.489,1.489,0,0,0,832.5,33.094Z" transform="translate(-34 -19)"/>
    </g>
    <g id="_16-2" data-name="16">
      <path id="_16-3" data-name="16" class="cls-4" d="M783.647,33.508l-0.017-.037a0.354,0.354,0,0,0-.02-0.042l-0.069-.111a0.42,0.42,0,0,0-.025-0.034c-0.018-.021-0.036-0.043-0.057-0.065l-2.222-2.279a0.871,0.871,0,0,0-1.225,0,0.9,0.9,0,0,0,0,1.245l0.755,0.774h-3.846a4.385,4.385,0,0,1-4.322-4.436,4.042,4.042,0,0,1,1.151-2.837,0.9,0.9,0,0,0,0-1.245,0.848,0.848,0,0,0-.612-0.26h0a0.851,0.851,0,0,0-.613.26,5.813,5.813,0,0,0-1.653,4.081,6.138,6.138,0,0,0,6.05,6.2h3.846l-0.755.774a0.9,0.9,0,0,0,0,1.245,0.852,0.852,0,0,0,1.225,0l2.222-2.279c0.02-.021.039-0.043,0.055-0.063a0.365,0.365,0,0,0,.025-0.033l0.071-.114a0.294,0.294,0,0,0,.019-0.041c0.006-.012.012-0.025,0.015-0.033a0.45,0.45,0,0,0,.017-0.047l0.032-.118c0-.013,0-0.026.008-0.049l0.006-.039a0.952,0.952,0,0,0,0-.177Zm-0.068.225h0Zm-0.079-.25h0Zm0.079,0.466h0Zm-0.724-11.628H779l0.754-.774a0.9,0.9,0,0,0,0-1.245,0.871,0.871,0,0,0-1.225,0l-2.221,2.279a0.7,0.7,0,0,0-.056.063l-0.1.147a0.288,0.288,0,0,0-.019.041c-0.006.012-.012,0.025-0.015,0.033a0.391,0.391,0,0,0-.015.041l-0.034.123c0,0.013,0,.027-0.008.049l-0.006.039a0.949,0.949,0,0,0,0,.174l0.061,0.248c0.006,0.014.012,0.028,0.016,0.035s0.013,0.03.02,0.042a0.477,0.477,0,0,0,.024.043l0.07,0.1c0.018,0.022.037,0.044,0.057,0.064l2.222,2.279a0.871,0.871,0,0,0,1.225,0,0.9,0.9,0,0,0,0-1.245L779,24.087h3.845a4.384,4.384,0,0,1,4.321,4.436,4.04,4.04,0,0,1-1.15,2.836,0.9,0.9,0,0,0,0,1.245,0.848,0.848,0,0,0,.612.26h0a0.851,0.851,0,0,0,.613-0.26,5.814,5.814,0,0,0,1.653-4.081A6.136,6.136,0,0,0,782.855,22.322Zm-6.527.428h0Zm-0.125.268h0Zm-0.02.111h0Zm0,0.183h0Zm0.116,0.314h0Z" transform="translate(-34 -19)"/>
    </g>
    <g id="_15-2" data-name="15">
      <path id="_15-3" data-name="15" class="cls-4" d="M738.112,28.71l0.21,0.336,0.222-.329c1.059-1.569,2.107-2.615,3.776-2.615h0.1v3.166l4.225-4.141-4.225-4.142V24.15h-0.1a6.162,6.162,0,0,0-5.057,2.951l-0.1.138,0.1,0.142C737.562,27.83,737.844,28.28,738.112,28.71Zm4.306,4.181h-0.1c-2.165,0-3.293-1.809-4.6-3.9-1.415-2.268-3.017-4.838-6.3-4.838h-2.733V26.1h2.733c2.165,0,3.293,1.808,4.6,3.9,1.415,2.267,3.018,4.837,6.3,4.837h0.1v3.166l4.225-4.141-4.225-4.142v3.166Zm-6.794-2.609-0.21-.336-0.222.329c-1.059,1.57-2.106,2.616-3.775,2.616h-2.733v1.951h2.733a6.162,6.162,0,0,0,5.056-2.951l0.1-.138-0.1-.142C736.175,31.165,735.9,30.717,735.624,30.282Z" transform="translate(-34 -19)"/>
    </g>
    <g id="_14-2" data-name="14">
      <path id="_13" data-name="13" class="cls-1" d="M698.681,31.181a2.767,2.767,0,0,1-3.979-.242,3.012,3.012,0,0,1-.02-3.845,2.763,2.763,0,0,1,4-.265l3.037-2.105a0.767,0.767,0,0,1,.094-0.065,1.078,1.078,0,0,0,.63-1.08,2.756,2.756,0,0,1,2.606-2.573,2.818,2.818,0,0,1,2.847,2.212,2.958,2.958,0,0,1-1.352,3.22,2.719,2.719,0,0,1-3.344-.5c-0.086-.09-0.169-0.185-0.272-0.3-1.118.776-2.227,1.542-3.328,2.32a0.409,0.409,0,0,0-.091.287c-0.007.5-.009,1,0.006,1.5a0.486,0.486,0,0,0,.128.341c1.082,0.767,2.174,1.518,3.293,2.294a2.929,2.929,0,0,1,1.767-1.143,2.823,2.823,0,0,1,3.25,2.328,2.928,2.928,0,0,1-2.228,3.39,2.826,2.826,0,0,1-3.323-2.912,0.53,0.53,0,0,0-.163-0.38C701.063,32.829,699.878,32.013,698.681,31.181Zm-1.857-3.628a1.451,1.451,0,0,0-.031,2.9A1.451,1.451,0,0,0,696.824,27.554Zm8.374-2.194A1.419,1.419,0,0,0,706.59,23.9,1.4,1.4,0,1,0,705.2,25.359ZM705.2,32.65a1.418,1.418,0,0,0-1.4,1.446A1.4,1.4,0,1,0,705.2,32.65Z" transform="translate(-34 -19)"/>
    </g>
    <g id="_13-2" data-name="13">
      <path id="_12" data-name="12" class="cls-1" d="M661.6,26.428H652v1.714h9.6V26.428Zm0-3.428H652v1.714h9.6V23Zm3.2,6.857V26.428h-1.6v3.429H660v1.714h3.2V35h1.6V31.571H668V29.857h-3.2ZM652,31.571h6.4V29.857H652v1.714Z" transform="translate(-34 -19)"/>
    </g>
    <g id="_12-2" data-name="12">
      <path id="_10" data-name="10" class="cls-4" d="M626.69,35.144L623.3,31.509a6.661,6.661,0,0,0,1.323-3.989,6.322,6.322,0,1,0-6.319,6.519A6.116,6.116,0,0,0,621.726,33l3.416,3.668a1.049,1.049,0,0,0,1.518.031A1.127,1.127,0,0,0,626.69,35.144Zm-4.206-7.625a4.177,4.177,0,1,1-4.176-4.314A4.252,4.252,0,0,1,622.484,27.52Z" transform="translate(-34 -19)"/>
    </g>
    <g id="_11-2" data-name="11">
      <path id="_06" data-name="06" class="cls-1" d="M578.649,32.35a0.477,0.477,0,0,0,.351.15,0.484,0.484,0,0,0,.351-0.15l3.266-3.5a0.413,0.413,0,0,0,.074-0.469,0.468,0.468,0,0,0-.425-0.256H580.4V23.437A0.453,0.453,0,0,0,579.933,23h-1.867a0.453,0.453,0,0,0-.466.437v4.687h-1.867a0.471,0.471,0,0,0-.425.256,0.417,0.417,0,0,0,.074.469Zm5.484-.725V34.25H573.866V31.625H572v3.5a0.905,0.905,0,0,0,.933.875h12.133A0.906,0.906,0,0,0,586,35.125v-3.5h-1.867Z" transform="translate(-34 -19)"/>
    </g>
    <g id="_10-2" data-name="10">
      <path id="_08-2" data-name="08" class="cls-1" d="M542.7,23a4.248,4.248,0,0,0-1.961.475,4.309,4.309,0,0,0-.732.478,4.309,4.309,0,0,0-.732-0.478A4.245,4.245,0,0,0,537.312,23a4.326,4.326,0,0,0-4.305,4.337,7.606,7.606,0,0,0,2.452,5.053,22.95,22.95,0,0,0,4.031,3.285l0.515,0.336,0.516-.336a22.984,22.984,0,0,0,4.03-3.285A7.606,7.606,0,0,0,547,27.337,4.326,4.326,0,0,0,542.7,23Zm-5.386,1.866a2.4,2.4,0,0,1,1.939.983l0.754,1.014,0.755-1.015a2.4,2.4,0,0,1,1.938-.982,2.453,2.453,0,0,1,2.43,2.471,5.879,5.879,0,0,1-1.946,3.777,20.224,20.224,0,0,1-3.177,2.656,20.315,20.315,0,0,1-3.177-2.656,5.879,5.879,0,0,1-1.946-3.777A2.454,2.454,0,0,1,537.312,24.866Z" transform="translate(-34 -19)"/>
    </g>
    <g id="Hover_19" data-name="Hover 19">
      <path class="cls-5" d="M1406.97,69.9a3.619,3.619,0,0,0-3.04-3.7,22.919,22.919,0,0,0-2.4-.035c-0.27.006-.55,0.012-0.82,0.014h-0.04l-1.1-.052c-0.68,0-1.36-.007-2.04.007a3.418,3.418,0,0,0-3.39,2.938,13.59,13.59,0,0,0-.13,2.207v0.873a0.749,0.749,0,0,0,.16.456,0.81,0.81,0,0,0,.68.4,0.853,0.853,0,0,0,.26-0.043,0.976,0.976,0,0,0,.64-0.972c0.01-.327.01-0.654,0.01-0.981V70.274c0.02-1.363.71-2.146,1.89-2.148,1.89,0,3.78,0,5.66,0,1.21,0,1.89.772,1.91,2.165V71c0,0.337,0,.674.01,1.011a0.945,0.945,0,0,0,.88.993h0.02a0.926,0.926,0,0,0,.85-1.032l0.01-.163C1406.99,71.187,1407,70.539,1406.97,69.9Zm-6.47-4.114h0.02l0.03-.006c0.04-.008.09-0.016,0.14-0.025a3.325,3.325,0,0,0,.58-0.13,4.725,4.725,0,0,0,2.76-4.912,3.982,3.982,0,0,0-3.19-3.678,3.661,3.661,0,0,0-3.75,2.353,5.11,5.11,0,0,0,.75,5.008A3.393,3.393,0,0,0,1400.5,65.788Zm-1.2-6.374a1.672,1.672,0,0,1,1.09-.4h0.01a1.75,1.75,0,0,1,1.5.853,2.7,2.7,0,0,1,.21,2.349,2.845,2.845,0,0,1-.8,1.2,1.287,1.287,0,0,1-1.65.131,3,3,0,0,1-1.16-2.2A2.284,2.284,0,0,1,1399.3,59.414Z" transform="translate(-34 -19)"/>
    </g>
    <g id="Hover_19-2" data-name="Hover 19">
      <path id="_19-2" data-name="19" class="cls-5" d="M1439.15,66.962a0.883,0.883,0,0,0,0,1.21,0.8,0.8,0,0,0,1.16,0l2.45-2.567a0.242,0.242,0,0,0,.05-0.062c0.01-.005.01-0.011,0.02-0.017l0.03-.051c0-.005.01-0.01,0.01-0.015l0.03-.056s0.01-.008.01-0.011l0.03-.064V65.32a0.185,0.185,0,0,0,.02-0.071c0.01,0,.01-0.006.01-0.008,0-.024.01-0.048,0.01-0.072a0.022,0.022,0,0,0,.01-0.022,0.134,0.134,0,0,1,.01-0.061V64.915a0.132,0.132,0,0,1-.01-0.061,0.023,0.023,0,0,0-.01-0.022c0-.025-0.01-0.048-0.01-0.072,0,0,0-.006-0.01-0.009a0.184,0.184,0,0,0-.02-0.07V64.672l-0.03-.064s-0.01-.008-0.01-0.012l-0.03-.056c0-.005-0.01-0.01-0.01-0.016l-0.03-.051c-0.01-.006-0.01-0.011-0.02-0.017a0.243,0.243,0,0,0-.05-0.062l-2.45-2.567a0.8,0.8,0,0,0-1.16,0,0.883,0.883,0,0,0,0,1.21l1.06,1.107h-7.77a0.857,0.857,0,0,0,0,1.712h7.77Zm1.06-1.106M1431.69,58a7.007,7.007,0,0,0,0,14,6.614,6.614,0,0,0,5.55-3.086,0.868,0.868,0,0,0-.22-1.188,0.79,0.79,0,0,0-1.13.23,5.009,5.009,0,0,1-4.2,2.332,5.294,5.294,0,0,1,0-10.577,4.991,4.991,0,0,1,4.2,2.343,0.8,0.8,0,0,0,1.14.233,0.887,0.887,0,0,0,.22-1.188,6.612,6.612,0,0,0-5.56-3.1h0Zm0,0" transform="translate(-34 -19)"/>
    </g>
    <g id="Hove_18" data-name="Hove 18">
      <path id="_11-3" data-name="11" class="cls-5" d="M825,75a3.037,3.037,0,0,0,2.939-2.5h-5.878A3.037,3.037,0,0,0,825,75Zm7.5-5.906a5.678,5.678,0,0,1-1.9-4.271V62.5a5.766,5.766,0,0,0-4.8-5.767v-0.9a0.8,0.8,0,1,0-1.6,0v0.9a5.765,5.765,0,0,0-4.8,5.767v2.323a5.685,5.685,0,0,1-1.911,4.278A1.481,1.481,0,0,0,817,70.208a1.432,1.432,0,0,0,1.4,1.459h13.2a1.432,1.432,0,0,0,1.4-1.459A1.489,1.489,0,0,0,832.5,69.094Z" transform="translate(-34 -19)"/>
    </g>
    <g id="Hove_17" data-name="Hove 17">
      <path class="cls-5" d="M1262,67.429c0.01,0.011.02,0.014,0.03,0.024a0.658,0.658,0,0,0,.14.119c0.03,0.014.04,0.032,0.07,0.043a0.584,0.584,0,0,0,.52,0c0.03-.011.04-0.029,0.07-0.043a0.658,0.658,0,0,0,.14-0.119c0.01-.01.02-0.014,0.03-0.024l1.87-2.471a0.588,0.588,0,0,0,.06-0.647,0.617,0.617,0,0,0-.56-0.341h-1.25V58.618A0.614,0.614,0,0,0,1262.5,58a0.623,0.623,0,0,0-.63.618v5.353h-1.25a0.613,0.613,0,0,0-.55.341,0.606,0.606,0,0,0,.05.647Zm7.37-.988a0.62,0.62,0,0,0-.62.618v1.853a1.867,1.867,0,0,1-1.88,1.853h-8.75a1.864,1.864,0,0,1-1.87-1.853V67.059a0.625,0.625,0,0,0-1.25,0v1.853A3.108,3.108,0,0,0,1258.12,72h8.75a3.11,3.11,0,0,0,3.13-3.088V67.059A0.623,0.623,0,0,0,1269.37,66.441Z" transform="translate(-34 -19)"/>
    </g>
    <g id="Hover_16" data-name="Hover 16">
      <path id="_16-4" data-name="16" class="cls-5" d="M783.647,69.508l-0.017-.037a0.354,0.354,0,0,0-.02-0.042l-0.069-.111a0.42,0.42,0,0,0-.025-0.034c-0.018-.022-0.036-0.043-0.057-0.065l-2.222-2.279a0.871,0.871,0,0,0-1.225,0,0.9,0.9,0,0,0,0,1.245l0.755,0.774h-3.846a4.385,4.385,0,0,1-4.322-4.436,4.042,4.042,0,0,1,1.151-2.836,0.9,0.9,0,0,0,0-1.245,0.848,0.848,0,0,0-.612-0.26h0a0.851,0.851,0,0,0-.613.26,5.813,5.813,0,0,0-1.653,4.081,6.138,6.138,0,0,0,6.05,6.2h3.846l-0.755.774a0.9,0.9,0,0,0,0,1.245,0.852,0.852,0,0,0,1.225,0l2.222-2.279c0.02-.021.039-0.043,0.055-0.063a0.365,0.365,0,0,0,.025-0.033l0.071-.115a0.294,0.294,0,0,0,.019-0.041c0.006-.013.012-0.025,0.015-0.033a0.45,0.45,0,0,0,.017-0.047l0.032-.118c0-.013,0-0.026.008-0.049l0.006-.039a0.953,0.953,0,0,0,0-.177Zm-0.068.225h0Zm-0.079-.25h0Zm0.079,0.467h0Zm-0.724-11.628H779l0.754-.774a0.9,0.9,0,0,0,0-1.245,0.871,0.871,0,0,0-1.225,0l-2.221,2.279a0.709,0.709,0,0,0-.056.063l-0.1.147a0.288,0.288,0,0,0-.019.041c-0.006.013-.012,0.025-0.015,0.033a0.391,0.391,0,0,0-.015.041l-0.034.123c0,0.013,0,.027-0.008.049l-0.006.039a0.949,0.949,0,0,0,0,.174l0.061,0.248c0.006,0.014.012,0.028,0.016,0.035s0.013,0.03.02,0.042a0.477,0.477,0,0,0,.024.043l0.07,0.1c0.018,0.022.037,0.044,0.057,0.064l2.222,2.279a0.871,0.871,0,0,0,1.225,0,0.9,0.9,0,0,0,0-1.245L779,60.087h3.845a4.384,4.384,0,0,1,4.321,4.436,4.04,4.04,0,0,1-1.15,2.836,0.9,0.9,0,0,0,0,1.245,0.848,0.848,0,0,0,.612.26h0a0.851,0.851,0,0,0,.613-0.26,5.814,5.814,0,0,0,1.653-4.081A6.136,6.136,0,0,0,782.855,58.322Zm-6.527.428h0Zm-0.125.268h0Zm-0.02.111h0Zm0,0.183h0Zm0.116,0.313h0Z" transform="translate(-34 -19)"/>
    </g>
    <g id="Hover_15" data-name="Hover 15">
      <path id="_15-4" data-name="15" class="cls-5" d="M738.112,64.71l0.21,0.336,0.222-.329c1.059-1.57,2.107-2.615,3.776-2.615h0.1v3.166l4.225-4.141-4.225-4.142V60.15h-0.1a6.162,6.162,0,0,0-5.057,2.951l-0.1.138,0.1,0.142C737.562,63.83,737.844,64.28,738.112,64.71Zm4.306,4.181h-0.1c-2.165,0-3.293-1.808-4.6-3.9-1.415-2.268-3.017-4.838-6.3-4.838h-2.733V62.1h2.733c2.165,0,3.293,1.808,4.6,3.9,1.415,2.267,3.018,4.837,6.3,4.837h0.1v3.166l4.225-4.141-4.225-4.142v3.166Zm-6.794-2.608-0.21-.336-0.222.329c-1.059,1.57-2.106,2.616-3.775,2.616h-2.733v1.951h2.733a6.162,6.162,0,0,0,5.056-2.951l0.1-.138-0.1-.142C736.175,67.165,735.9,66.717,735.624,66.282Z" transform="translate(-34 -19)"/>
    </g>
    <g id="Hover_14" data-name="Hover 14">
      <path id="_13-3" data-name="13" class="cls-5" d="M698.681,67.181a2.767,2.767,0,0,1-3.979-.242,3.012,3.012,0,0,1-.02-3.845,2.763,2.763,0,0,1,4-.265l3.037-2.105a0.767,0.767,0,0,1,.094-0.065,1.078,1.078,0,0,0,.63-1.08,2.756,2.756,0,0,1,2.606-2.573,2.818,2.818,0,0,1,2.847,2.212,2.958,2.958,0,0,1-1.352,3.22,2.719,2.719,0,0,1-3.344-.5c-0.086-.09-0.169-0.185-0.272-0.3-1.118.776-2.227,1.542-3.328,2.32a0.409,0.409,0,0,0-.091.287c-0.007.5-.009,1,0.006,1.5a0.486,0.486,0,0,0,.128.341c1.082,0.767,2.174,1.518,3.293,2.294a2.929,2.929,0,0,1,1.767-1.143,2.823,2.823,0,0,1,3.25,2.328,2.928,2.928,0,0,1-2.228,3.39,2.826,2.826,0,0,1-3.323-2.912,0.53,0.53,0,0,0-.163-0.38C701.063,68.829,699.878,68.013,698.681,67.181Zm-1.857-3.628a1.451,1.451,0,0,0-.031,2.9A1.451,1.451,0,0,0,696.824,63.554Zm8.374-2.194A1.419,1.419,0,0,0,706.59,59.9,1.4,1.4,0,1,0,705.2,61.359ZM705.2,68.65a1.418,1.418,0,0,0-1.4,1.446A1.4,1.4,0,1,0,705.2,68.65Z" transform="translate(-34 -19)"/>
    </g>
    <g id="Hover_13" data-name="Hover 13">
      <path id="_12-3" data-name="12" class="cls-5" d="M661.6,62.428H652v1.714h9.6V62.428Zm0-3.429H652v1.714h9.6V59Zm3.2,6.857V62.428h-1.6v3.429H660v1.714h3.2V71h1.6V67.571H668V65.857h-3.2ZM652,67.571h6.4V65.857H652v1.714Z" transform="translate(-34 -19)"/>
    </g>
    <g id="Hover_12" data-name="Hover 12">
      <path id="_10-3" data-name="10" class="cls-5" d="M626.69,71.144L623.3,67.509a6.661,6.661,0,0,0,1.323-3.989,6.322,6.322,0,1,0-6.319,6.519A6.116,6.116,0,0,0,621.726,69l3.416,3.668a1.049,1.049,0,0,0,1.518.031A1.127,1.127,0,0,0,626.69,71.144Zm-4.206-7.625a4.177,4.177,0,1,1-4.176-4.314A4.252,4.252,0,0,1,622.484,63.52Z" transform="translate(-34 -19)"/>
    </g>
    <g id="Hover_11" data-name="Hover 11">
      <path id="_06-2" data-name="06" class="cls-5" d="M578.649,68.35a0.477,0.477,0,0,0,.351.15,0.484,0.484,0,0,0,.351-0.15l3.266-3.5a0.413,0.413,0,0,0,.074-0.469,0.468,0.468,0,0,0-.425-0.257H580.4V59.437A0.453,0.453,0,0,0,579.933,59h-1.867a0.453,0.453,0,0,0-.466.437v4.687h-1.867a0.471,0.471,0,0,0-.425.257,0.417,0.417,0,0,0,.074.469Zm5.484-.725V70.25H573.866V67.625H572v3.5a0.905,0.905,0,0,0,.933.875h12.133A0.905,0.905,0,0,0,586,71.125v-3.5h-1.867Z" transform="translate(-34 -19)"/>
    </g>
    <g id="Hover_10" data-name="Hover 10">
      <path id="_08-3" data-name="08" class="cls-5" d="M542.7,59a4.249,4.249,0,0,0-1.961.475,4.316,4.316,0,0,0-.732.479,4.316,4.316,0,0,0-.732-0.479A4.246,4.246,0,0,0,537.312,59a4.326,4.326,0,0,0-4.305,4.337,7.606,7.606,0,0,0,2.452,5.053,22.95,22.95,0,0,0,4.031,3.285l0.515,0.336,0.516-.336a22.984,22.984,0,0,0,4.03-3.285A7.606,7.606,0,0,0,547,63.337,4.326,4.326,0,0,0,542.7,59Zm-5.386,1.866a2.4,2.4,0,0,1,1.939.983l0.754,1.014,0.755-1.015a2.4,2.4,0,0,1,1.938-.983,2.453,2.453,0,0,1,2.43,2.471,5.879,5.879,0,0,1-1.946,3.777,20.224,20.224,0,0,1-3.177,2.656,20.315,20.315,0,0,1-3.177-2.656,5.879,5.879,0,0,1-1.946-3.777A2.454,2.454,0,0,1,537.312,60.866Z" transform="translate(-34 -19)"/>
    </g>
  </g>
  <g id="SVG">
    <g id="Hover_09" data-name="Hover 09">
      <path id="_09" data-name="09" class="cls-5" d="M450.58,64.432a6.856,6.856,0,0,0-8.174-5.687,7.527,7.527,0,0,0-3.422,1.749c-0.406-.442-0.774-0.878-1.186-1.272a0.66,0.66,0,0,0-.551-0.159,0.631,0.631,0,0,0-.283.491c-0.026,1.2-.02,2.4-0.016,3.595a0.526,0.526,0,0,0,.61.584c1.224-.006,2.447.011,3.67-0.015a0.739,0.739,0,0,0,.544-0.3,0.626,0.626,0,0,0-.188-0.524c-0.4-.408-0.834-0.779-1.283-1.19a4.875,4.875,0,0,1,3.617-1.357,4.97,4.97,0,0,1,4.827,3.959A4.816,4.816,0,0,1,446,69.579a5.135,5.135,0,0,1-5.275-.468,0.832,0.832,0,0,0-1.312.314c-0.28.38-.2,0.7,0.276,1.04A6.85,6.85,0,0,0,450.58,64.432Zm-6.068,2.809c0.623,0.371.878,0.385,1.276-.124,0.382-.49.327-0.81-0.214-1.233a3.751,3.751,0,0,0-.458-0.346,0.847,0.847,0,0,1-.433-0.893c0.031-.691.022-1.385,0-2.077-0.021-.589-0.247-0.764-0.894-0.762s-0.857.181-.879,0.777c-0.02.523,0,1.048,0,1.822C442.433,65.673,443.306,66.521,444.512,67.241Z" transform="translate(-34 -19)"/>
    </g>
    <g id="Hover_08" data-name="Hover 08">
      <path id="_08-4" data-name="08" class="cls-5" d="M252.7,59a4.251,4.251,0,0,0-1.962.475,4.316,4.316,0,0,0-.732.479,4.316,4.316,0,0,0-.732-0.479A4.246,4.246,0,0,0,247.312,59a4.326,4.326,0,0,0-4.305,4.337,7.606,7.606,0,0,0,2.452,5.053,22.95,22.95,0,0,0,4.031,3.285l0.515,0.336,0.516-.336a23.023,23.023,0,0,0,4.031-3.285A7.608,7.608,0,0,0,257,63.337,4.325,4.325,0,0,0,252.7,59Zm-5.387,1.866a2.4,2.4,0,0,1,1.939.983l0.754,1.014,0.755-1.015a2.4,2.4,0,0,1,1.939-.983,2.453,2.453,0,0,1,2.429,2.471,5.879,5.879,0,0,1-1.946,3.777,20.224,20.224,0,0,1-3.177,2.656,20.315,20.315,0,0,1-3.177-2.656,5.877,5.877,0,0,1-1.945-3.777A2.453,2.453,0,0,1,247.312,60.866Z" transform="translate(-34 -19)"/>
    </g>
    <g id="Hover_07" data-name="Hover 07">
      <path id="_07" data-name="07" class="cls-5" d="M158.225,63.3h0a0.777,0.777,0,0,0-.1.007c-0.031,0-.062,0-0.095-0.005-0.635-.007-1.27-0.011-1.905,0a0.429,0.429,0,0,1-.472-0.28q-0.759-1.618-1.56-3.219a1.122,1.122,0,0,0-.372-0.424,0.714,0.714,0,0,0-.85.1,0.685,0.685,0,0,0-.139.844c0.423,0.885.854,1.766,1.28,2.649,0.045,0.092.082,0.186,0.134,0.3h-6.294c0.051-.118.089-0.212,0.133-0.3,0.427-.883.857-1.764,1.28-2.649a0.683,0.683,0,0,0-.139-0.844,0.714,0.714,0,0,0-.85-0.1,1.123,1.123,0,0,0-.372.425q-0.8,1.6-1.56,3.218a0.429,0.429,0,0,1-.472.28c-0.634-.015-1.27-0.011-1.905,0-0.032,0-.064,0-0.094.005a0.826,0.826,0,0,0-.1-0.007h0a0.76,0.76,0,0,0-.774.746v0.12a0.76,0.76,0,0,0,.77.745,0.957,0.957,0,0,0,.1.019,0.292,0.292,0,0,1,.309.264q0.476,2.289.963,4.576c0.047,0.224.089,0.45,0.14,0.674a1,1,0,0,0,1.1.84q2.01,0,4.02,0h1.188q2.01,0,4.019,0a1,1,0,0,0,1.1-.84c0.051-.224.093-0.449,0.141-0.674,0.321-1.525.645-3.05,0.962-4.576a0.293,0.293,0,0,1,.31-0.264,0.939,0.939,0,0,0,.1-0.02A0.761,0.761,0,0,0,159,64.162v-0.12A0.761,0.761,0,0,0,158.225,63.3Zm-10.493,6.562a0.634,0.634,0,0,1-.7-0.586q-0.246-1.339-.488-2.678c-0.115-.636-0.142-0.8.149-1.025a0.624,0.624,0,0,1,.546-0.119,0.667,0.667,0,0,1,.45.541c0.185,1.034.379,2.067,0.56,3.1A0.6,0.6,0,0,1,147.732,69.859Zm3.853-.6a0.694,0.694,0,0,1-.018.154s0,0,0,0c0,0.017-.008.034-0.013,0.051l0,0.006a0.577,0.577,0,0,1-1.1,0,0.015,0.015,0,0,1,0-.006,0.437,0.437,0,0,1-.014-0.051s0,0,0,0a0.759,0.759,0,0,1-.018-0.154c-0.007-.726,0-1.453,0-2.179v-0.4c0-.042,0-0.122.009-0.222V65.945a0.58,0.58,0,1,1,1.159,0v0.514c0.006,0.1.009,0.18,0.01,0.222,0,0.133,0,.268,0,0.4C151.588,67.809,151.593,68.536,151.585,69.262Zm3.874-2.667q-0.242,1.339-.487,2.678a0.635,0.635,0,0,1-.705.586,0.6,0.6,0,0,1-.513-0.766c0.181-1.035.375-2.068,0.561-3.1a0.664,0.664,0,0,1,.45-0.541,0.625,0.625,0,0,1,.546.119C155.6,65.792,155.574,65.959,155.459,66.595Z" transform="translate(-34 -19)"/>
    </g>
    <g id="Hover_06" data-name="Hover 06">
      <path id="_06-3" data-name="06" class="cls-5" d="M298.649,68.35a0.479,0.479,0,0,0,.351.15,0.484,0.484,0,0,0,.351-0.15l3.266-3.5a0.413,0.413,0,0,0,.074-0.469,0.468,0.468,0,0,0-.425-0.257H300.4V59.437A0.453,0.453,0,0,0,299.933,59h-1.866a0.453,0.453,0,0,0-.467.437v4.687h-1.867a0.471,0.471,0,0,0-.425.257,0.417,0.417,0,0,0,.074.469Zm5.484-.725V70.25H293.866V67.625H292v3.5a0.905,0.905,0,0,0,.933.875h12.133A0.905,0.905,0,0,0,306,71.125v-3.5h-1.867Z" transform="translate(-34 -19)"/>
    </g>
    <g id="Hover_05" data-name="Hover 05">
      <path id="_05" data-name="05" class="cls-5" d="M344.085,68.58a2.962,2.962,0,0,0-1.171-.24,2.831,2.831,0,1,0,2.914,2.83V64.983l6.429-1.775v3.117a2.972,2.972,0,0,0-1.172-.24A2.831,2.831,0,1,0,354,68.914V57l-9.915,2.737V68.58Zm-1.171,3.728a1.138,1.138,0,1,1,1.171-1.138,1.157,1.157,0,0,1-1.171,1.138h0Zm8.171-2.256a1.138,1.138,0,1,1,1.172-1.137,1.156,1.156,0,0,1-1.172,1.137h0Zm1.172-10.811v2.208l-6.429,1.775V61.015Zm0,0" transform="translate(-34 -19)"/>
    </g>
    <g id="Hover_04" data-name="Hover 04">
      <path id="_04" data-name="04" class="cls-5" d="M96.908,60.707a0.548,0.548,0,0,0-.792,0,4.684,4.684,0,0,0,0,6.482,0.548,0.548,0,0,0,.792,0,0.59,0.59,0,0,0,0-.817,3.5,3.5,0,0,1,0-4.848A0.59,0.59,0,0,0,96.908,60.707Zm-1.69-.926a0.591,0.591,0,0,0,0-.817,0.548,0.548,0,0,0-.792,0,7.215,7.215,0,0,0,0,9.968,0.548,0.548,0,0,0,.792,0,0.591,0.591,0,0,0,0-.817A6.032,6.032,0,0,1,95.218,59.781Zm-1.69-1.743a0.59,0.59,0,0,0,0-.817,0.548,0.548,0,0,0-.792,0,9.491,9.491,0,0,0,0,13.454,0.548,0.548,0,0,0,.792,0,0.59,0.59,0,0,0,0-.817A8.355,8.355,0,0,1,93.528,58.038Zm5.971,3.64A2.089,2.089,0,0,0,97.446,63.8a2.113,2.113,0,0,0,1.494,2.038v6.59a0.56,0.56,0,1,0,1.12,0v-6.59a2.112,2.112,0,0,0,1.494-2.038A2.089,2.089,0,0,0,99.5,61.678Zm6.763-4.457a0.548,0.548,0,0,0-.792,0,0.592,0.592,0,0,0,0,.817,8.353,8.353,0,0,1,0,11.821,0.592,0.592,0,0,0,0,.817,0.548,0.548,0,0,0,.792,0A9.49,9.49,0,0,0,106.262,57.221Zm-1.689,1.743a0.549,0.549,0,0,0-.793,0,0.592,0.592,0,0,0,0,.817,6.031,6.031,0,0,1,0,8.334,0.592,0.592,0,0,0,0,.817,0.549,0.549,0,0,0,.793,0A7.216,7.216,0,0,0,104.573,58.964Zm-1.69,1.743a0.548,0.548,0,0,0-.792,0,0.59,0.59,0,0,0,0,.817,3.51,3.51,0,0,1,0,4.848,0.59,0.59,0,0,0,0,.817,0.548,0.548,0,0,0,.792,0A4.693,4.693,0,0,0,102.883,60.707Z" transform="translate(-34 -19)"/>
    </g>
    <g id="Hover_03" data-name="Hover 03">
      <path id="_03" data-name="03" class="cls-5" d="M203.473,60H194v1.571h9.473V60Zm0,3.143H194v1.571h9.473V63.143ZM194,67.857h6.315V66.286H194v1.571ZM205.052,60v6.431a2.283,2.283,0,0,0-.789-0.145,2.357,2.357,0,1,0,2.368,2.357V61.571H209V60h-3.948Z" transform="translate(-34 -19)"/>
    </g>
    <g id="Hover_02" data-name="Hover 02">
      <path id="_02" data-name="02" class="cls-5" d="M402.937,61.625a0.7,0.7,0,0,0-.6-0.684,0.814,0.814,0,0,0-.939.961,20.084,20.084,0,0,1-.07,2.357,5.491,5.491,0,0,1-5.969,4.788,5.652,5.652,0,0,1-4.774-5.266c-0.023-.685,0-1.372-0.032-2.056a0.772,0.772,0,1,0-1.54.032,25.376,25.376,0,0,0,.08,2.575,7.126,7.126,0,0,0,5.328,6.188c0.253,0.06.508,0.116,0.763,0.175v1.658c-0.759,0-1.49,0-2.221,0a0.815,0.815,0,1,0-.057,1.629c2.047,0.016,4.094.011,6.141,0a0.748,0.748,0,0,0,.748-0.521,0.8,0.8,0,0,0-.748-1.111c-0.755-.014-1.509,0-2.279,0V70.708c0.132-.035.25-0.073,0.37-0.1a6.984,6.984,0,0,0,5-3.8A9.9,9.9,0,0,0,402.937,61.625Zm-6.943,5.823a3.9,3.9,0,0,0,3.81-3.628c0.057-.694.009-1.4,0.009-2.1h0c0-.714.05-1.432-0.009-2.14a3.912,3.912,0,0,0-3.817-3.578,3.872,3.872,0,0,0-3.819,3.567,34.531,34.531,0,0,0,0,4.28A3.864,3.864,0,0,0,395.994,67.448Zm-2.253-7.9a2.27,2.27,0,0,1,2.47-1.9,2.423,2.423,0,0,1,2.091,2.464q0.01,1.618,0,3.236a2.328,2.328,0,1,1-4.649-.012c0-.539,0-1.079,0-1.618l-0.034,0A16.654,16.654,0,0,1,393.741,59.548Z" transform="translate(-34 -19)"/>
    </g>
    <g id="Hover_01" data-name="Hover 01">
      <path id="_01" data-name="01" class="cls-5" d="M34,68.2h1.292V61.8H34V68.2Zm2.262,0.97h1.291V60.834H36.262v8.332ZM38.522,71H50.531V59H38.522V71Zm1.91-10.092h8.19v8.184h-8.19V60.908Zm13.277,0.9V68.2H55V61.8H53.708Zm-2.262,7.362h1.291V60.834H51.446v8.332Z" transform="translate(-34 -19)"/>
    </g>
    <g id="_09-2" data-name="09">
      <path id="_09-3" data-name="09" class="cls-1" d="M450.58,28.432a6.856,6.856,0,0,0-8.174-5.687,7.529,7.529,0,0,0-3.422,1.749c-0.406-.442-0.774-0.878-1.186-1.272a0.66,0.66,0,0,0-.551-0.16,0.631,0.631,0,0,0-.283.491c-0.026,1.2-.02,2.4-0.016,3.595a0.526,0.526,0,0,0,.61.584c1.224-.006,2.447.011,3.67-0.015a0.739,0.739,0,0,0,.544-0.3,0.626,0.626,0,0,0-.188-0.524c-0.4-.408-0.834-0.779-1.283-1.19a4.875,4.875,0,0,1,3.617-1.357,4.97,4.97,0,0,1,4.827,3.959A4.816,4.816,0,0,1,446,33.579a5.135,5.135,0,0,1-5.275-.468,0.832,0.832,0,0,0-1.312.314c-0.28.38-.2,0.7,0.276,1.04A6.851,6.851,0,0,0,450.58,28.432Zm-6.068,2.809c0.623,0.371.878,0.386,1.276-.124,0.382-.49.327-0.81-0.214-1.232a3.761,3.761,0,0,0-.458-0.346,0.847,0.847,0,0,1-.433-0.893c0.031-.691.022-1.385,0-2.077-0.021-.589-0.247-0.764-0.894-0.762s-0.857.181-.879,0.777c-0.02.523,0,1.048,0,1.822C442.433,29.673,443.306,30.521,444.512,31.24Z" transform="translate(-34 -19)"/>
    </g>
    <g id="_08-5" data-name="08">
      <path id="_08-6" data-name="08" class="cls-1" d="M252.7,23a4.249,4.249,0,0,0-1.962.475,4.321,4.321,0,0,0-.732.478,4.321,4.321,0,0,0-.732-0.478A4.245,4.245,0,0,0,247.312,23a4.326,4.326,0,0,0-4.305,4.337,7.605,7.605,0,0,0,2.452,5.053,22.956,22.956,0,0,0,4.031,3.285l0.515,0.336,0.516-.336a23.029,23.029,0,0,0,4.031-3.285A7.608,7.608,0,0,0,257,27.337,4.325,4.325,0,0,0,252.7,23Zm-5.387,1.866a2.4,2.4,0,0,1,1.939.983l0.754,1.014,0.755-1.015a2.4,2.4,0,0,1,1.939-.982,2.453,2.453,0,0,1,2.429,2.471,5.879,5.879,0,0,1-1.946,3.777,20.225,20.225,0,0,1-3.177,2.656,20.316,20.316,0,0,1-3.177-2.656,5.877,5.877,0,0,1-1.945-3.777A2.453,2.453,0,0,1,247.312,24.866Z" transform="translate(-34 -19)"/>
    </g>
    <g id="_07-2" data-name="07">
      <path id="_07-3" data-name="07" class="cls-1" d="M158.225,27.3h0a0.777,0.777,0,0,0-.1.007c-0.031,0-.062,0-0.095,0-0.635-.007-1.27-0.012-1.905,0a0.429,0.429,0,0,1-.472-0.28q-0.759-1.619-1.56-3.218a1.123,1.123,0,0,0-.372-0.425,0.714,0.714,0,0,0-.85.1,0.684,0.684,0,0,0-.139.844c0.423,0.885.854,1.766,1.28,2.649,0.045,0.092.082,0.187,0.134,0.3h-6.294c0.051-.118.089-0.212,0.133-0.3,0.427-.883.857-1.764,1.28-2.649a0.683,0.683,0,0,0-.139-0.844,0.714,0.714,0,0,0-.85-0.1,1.122,1.122,0,0,0-.372.424q-0.8,1.6-1.56,3.218a0.429,0.429,0,0,1-.472.28c-0.634-.015-1.27-0.011-1.905,0-0.032,0-.064,0-0.094,0a0.826,0.826,0,0,0-.1-0.007h0a0.76,0.76,0,0,0-.774.746v0.119a0.76,0.76,0,0,0,.77.745,0.982,0.982,0,0,0,.1.02,0.292,0.292,0,0,1,.309.264q0.476,2.289.963,4.575c0.047,0.224.089,0.45,0.14,0.674a1,1,0,0,0,1.1.84q2.01,0,4.02,0h1.188q2.01,0,4.019,0a1,1,0,0,0,1.1-.84c0.051-.224.093-0.449,0.141-0.674,0.321-1.525.645-3.05,0.962-4.576a0.293,0.293,0,0,1,.31-0.264,0.964,0.964,0,0,0,.1-0.02A0.76,0.76,0,0,0,159,28.162V28.042A0.761,0.761,0,0,0,158.225,27.3Zm-10.493,6.562a0.634,0.634,0,0,1-.7-0.586q-0.246-1.339-.488-2.678c-0.115-.636-0.142-0.8.149-1.026a0.624,0.624,0,0,1,.546-0.119,0.667,0.667,0,0,1,.45.541c0.185,1.034.379,2.067,0.56,3.1A0.6,0.6,0,0,1,147.732,33.859Zm3.853-.6a0.694,0.694,0,0,1-.018.154s0,0,0,0c0,0.017-.008.034-0.013,0.051l0,0.006a0.577,0.577,0,0,1-1.1,0,0.015,0.015,0,0,1,0-.006,0.449,0.449,0,0,1-.014-0.051s0,0,0,0a0.759,0.759,0,0,1-.018-0.154c-0.007-.726,0-1.453,0-2.179v-0.4c0-.042,0-0.122.009-0.222V29.945a0.58,0.58,0,1,1,1.159,0v0.514c0.006,0.1.009,0.18,0.01,0.222,0,0.133,0,.268,0,0.4C151.588,31.809,151.593,32.536,151.585,33.262Zm3.874-2.667q-0.242,1.339-.487,2.678a0.635,0.635,0,0,1-.705.586,0.6,0.6,0,0,1-.513-0.766c0.181-1.035.375-2.068,0.561-3.1a0.664,0.664,0,0,1,.45-0.541,0.625,0.625,0,0,1,.546.119C155.6,29.792,155.574,29.959,155.459,30.595Z" transform="translate(-34 -19)"/>
    </g>
    <g id="_06-4" data-name="06">
      <path id="_06-5" data-name="06" class="cls-1" d="M298.649,32.35a0.479,0.479,0,0,0,.351.15,0.484,0.484,0,0,0,.351-0.15l3.266-3.5a0.414,0.414,0,0,0,.074-0.469,0.468,0.468,0,0,0-.425-0.256H300.4V23.437A0.453,0.453,0,0,0,299.933,23h-1.866a0.453,0.453,0,0,0-.467.438v4.688h-1.867a0.471,0.471,0,0,0-.425.256,0.417,0.417,0,0,0,.074.469Zm5.484-.725V34.25H293.866V31.625H292v3.5a0.905,0.905,0,0,0,.933.875h12.133A0.905,0.905,0,0,0,306,35.125v-3.5h-1.867Z" transform="translate(-34 -19)"/>
    </g>
    <g id="_05-2" data-name="05">
      <path id="_05-3" data-name="05" class="cls-1" d="M344.085,32.58a2.964,2.964,0,0,0-1.171-.239,2.831,2.831,0,1,0,2.914,2.83V28.983l6.429-1.775v3.117a2.971,2.971,0,0,0-1.172-.24A2.831,2.831,0,1,0,354,32.914V21l-9.915,2.737V32.58Zm-1.171,3.728a1.138,1.138,0,1,1,1.171-1.138,1.157,1.157,0,0,1-1.171,1.138h0Zm8.171-2.256a1.138,1.138,0,1,1,1.172-1.137,1.156,1.156,0,0,1-1.172,1.137h0Zm1.172-10.811v2.208l-6.429,1.775V25.015Zm0,0" transform="translate(-34 -19)"/>
    </g>
    <g id="_04-2" data-name="04">
      <path id="_04-3" data-name="04" class="cls-1" d="M96.908,24.707a0.548,0.548,0,0,0-.792,0,4.684,4.684,0,0,0,0,6.482,0.548,0.548,0,0,0,.792,0,0.59,0.59,0,0,0,0-.817,3.5,3.5,0,0,1,0-4.848A0.59,0.59,0,0,0,96.908,24.707Zm-1.69-.926a0.591,0.591,0,0,0,0-.817,0.548,0.548,0,0,0-.792,0,7.215,7.215,0,0,0,0,9.968,0.548,0.548,0,0,0,.792,0,0.591,0.591,0,0,0,0-.817A6.032,6.032,0,0,1,95.218,23.781Zm-1.69-1.743a0.59,0.59,0,0,0,0-.817,0.548,0.548,0,0,0-.792,0,9.491,9.491,0,0,0,0,13.454,0.548,0.548,0,0,0,.792,0,0.59,0.59,0,0,0,0-.817A8.355,8.355,0,0,1,93.528,22.038Zm5.971,3.64A2.089,2.089,0,0,0,97.446,27.8a2.113,2.113,0,0,0,1.494,2.038v6.59a0.56,0.56,0,1,0,1.12,0v-6.59a2.112,2.112,0,0,0,1.494-2.038A2.089,2.089,0,0,0,99.5,25.678Zm6.763-4.457a0.548,0.548,0,0,0-.792,0,0.592,0.592,0,0,0,0,.817,8.353,8.353,0,0,1,0,11.82,0.592,0.592,0,0,0,0,.817,0.548,0.548,0,0,0,.792,0A9.49,9.49,0,0,0,106.262,21.221Zm-1.689,1.743a0.549,0.549,0,0,0-.793,0,0.592,0.592,0,0,0,0,.817,6.031,6.031,0,0,1,0,8.334,0.592,0.592,0,0,0,0,.817,0.549,0.549,0,0,0,.793,0A7.216,7.216,0,0,0,104.573,22.964Zm-1.69,1.743a0.548,0.548,0,0,0-.792,0,0.59,0.59,0,0,0,0,.817,3.51,3.51,0,0,1,0,4.848,0.59,0.59,0,0,0,0,.817,0.548,0.548,0,0,0,.792,0A4.693,4.693,0,0,0,102.883,24.707Z" transform="translate(-34 -19)"/>
    </g>
    <g id="_03-2" data-name="03">
      <path id="_03-3" data-name="03" class="cls-1" d="M203.473,24H194v1.571h9.473V24Zm0,3.143H194v1.571h9.473V27.143ZM194,31.857h6.315V30.286H194v1.571ZM205.052,24v6.431a2.285,2.285,0,0,0-.789-0.145,2.357,2.357,0,1,0,2.368,2.357V25.571H209V24h-3.948Z" transform="translate(-34 -19)"/>
    </g>
    <g id="_02-2" data-name="02">
      <path id="_02-3" data-name="02" class="cls-1" d="M402.937,25.625a0.7,0.7,0,0,0-.6-0.684,0.814,0.814,0,0,0-.939.961,20.084,20.084,0,0,1-.07,2.357,5.491,5.491,0,0,1-5.969,4.787,5.651,5.651,0,0,1-4.774-5.266c-0.023-.685,0-1.372-0.032-2.056a0.772,0.772,0,1,0-1.54.032,25.377,25.377,0,0,0,.08,2.575,7.126,7.126,0,0,0,5.328,6.188c0.253,0.06.508,0.116,0.763,0.175v1.658c-0.759,0-1.49,0-2.221,0a0.815,0.815,0,1,0-.057,1.629c2.047,0.016,4.094.011,6.141,0a0.748,0.748,0,0,0,.748-0.521,0.8,0.8,0,0,0-.748-1.111c-0.755-.014-1.509,0-2.279,0V34.708c0.132-.035.25-0.073,0.37-0.1a6.984,6.984,0,0,0,5-3.8A9.9,9.9,0,0,0,402.937,25.625Zm-6.943,5.823a3.9,3.9,0,0,0,3.81-3.628c0.057-.694.009-1.4,0.009-2.1h0c0-.714.05-1.432-0.009-2.14a3.912,3.912,0,0,0-3.817-3.578,3.873,3.873,0,0,0-3.819,3.567,34.531,34.531,0,0,0,0,4.28A3.864,3.864,0,0,0,395.994,31.448Zm-2.253-7.9a2.27,2.27,0,0,1,2.47-1.9,2.423,2.423,0,0,1,2.091,2.464q0.01,1.618,0,3.236a2.328,2.328,0,1,1-4.649-.012c0-.539,0-1.079,0-1.618l-0.034,0A16.655,16.655,0,0,1,393.741,23.548Z" transform="translate(-34 -19)"/>
    </g>
    <g id="_01-2" data-name="01">
      <path id="_01-3" data-name="01" class="cls-1" d="M34,32.2h1.292V25.8H34V32.2Zm2.262,0.97h1.291V24.834H36.262v8.332ZM38.522,35H50.531V23H38.522V35Zm1.91-10.092h8.19v8.184h-8.19V24.908Zm13.277,0.9V32.2H55V25.8H53.708Zm-2.262,7.362h1.291V24.834H51.446v8.332Z" transform="translate(-34 -19)"/>
    </g>
  </g>
</svg>
