<svg 
 xmlns="http://www.w3.org/2000/svg"
 xmlns:xlink="http://www.w3.org/1999/xlink"
 width="28px" height="28px">
<path fill-rule="evenodd"  fill="rgb(225, 60, 84)"
 d="M14.000,-0.000 C21.732,-0.000 28.000,6.268 28.000,14.000 C28.000,21.732 21.732,28.000 14.000,28.000 C6.268,28.000 -0.000,21.732 -0.000,14.000 C-0.000,6.268 6.268,-0.000 14.000,-0.000 Z"/>
<path fill-rule="evenodd"  fill="rgb(255, 255, 255)"
 d="M17.760,14.572 L12.960,18.857 C12.854,18.951 12.727,19.000 12.600,19.000 C12.509,19.000 12.417,18.976 12.332,18.925 C12.128,18.804 12.000,18.556 12.000,18.286 L12.000,9.715 C12.000,9.444 12.128,9.197 12.332,9.076 C12.534,8.955 12.778,8.981 12.960,9.143 L17.760,13.429 C17.911,13.564 18.000,13.775 18.000,14.000 C18.000,14.225 17.911,14.437 17.760,14.572 "/>
</svg>