<svg 
 xmlns="http://www.w3.org/2000/svg"
 xmlns:xlink="http://www.w3.org/1999/xlink"
 width="15px" height="16px">
<path fill-rule="evenodd"  fill="rgb(114, 133, 155)"
 d="M14.690,14.144 L11.304,10.509 C12.159,9.369 12.627,7.963 12.627,6.520 C12.627,2.926 9.793,0.002 6.308,0.002 C2.824,0.002 -0.010,2.926 -0.010,6.520 C-0.010,10.114 2.824,13.039 6.308,13.039 C7.532,13.039 8.708,12.681 9.726,12.000 L13.143,15.668 C13.346,15.888 13.622,16.009 13.917,16.009 C14.195,16.009 14.459,15.899 14.660,15.699 C15.083,15.281 15.098,14.583 14.690,14.144 ZM10.484,6.520 C10.484,8.899 8.611,10.835 6.308,10.835 C4.007,10.835 2.134,8.899 2.134,6.520 C2.134,4.141 4.007,2.206 6.308,2.206 C8.611,2.206 10.484,4.141 10.484,6.520 Z"/>
</svg>